<?xml version="1.0" standalone="no"?>
<!DOCTYPE svg PUBLIC "-//W3C//DTD SVG 20010904//EN"
 "http://www.w3.org/TR/2001/REC-SVG-20010904/DTD/svg10.dtd">
<svg version="1.0" xmlns="http://www.w3.org/2000/svg"
 width="500.000000pt" height="500.000000pt" viewBox="0 0 500.000000 500.000000"
 preserveAspectRatio="xMidYMid meet">

<g transform="translate(0.000000,500.000000) scale(0.100000,-0.100000)"
fill="#000000" stroke="none">
<path d="M2235 3159 c-191 -16 -408 -49 -439 -67 -23 -13 -44 -50 -98 -166
-37 -82 -68 -151 -68 -153 0 -2 18 -3 39 -3 40 0 51 11 51 53 1 38 36 103 80
145 82 79 201 126 396 158 193 32 580 22 864 -21 24 -3 19 0 -15 10 -146 43
-558 65 -810 44z"/>
<path d="M2310 3100 c-27 -4 30 -8 145 -9 436 -3 645 -45 731 -144 41 -48 45
-90 12 -111 -54 -34 -131 -38 -532 -31 -531 10 -755 -10 -994 -86 -98 -32
-230 -93 -267 -124 -19 -16 -19 -16 7 -1 137 81 401 141 783 177 158 16 826
16 1005 1 69 -5 127 -8 129 -6 9 8 -99 209 -133 248 -32 38 -34 38 -157 56
-245 36 -599 50 -729 30z"/>
<path d="M1450 2867 c-42 -15 -70 -58 -54 -84 8 -13 30 -20 75 -24 35 -3 77
-12 92 -19 23 -11 30 -11 42 1 12 12 10 14 -18 15 -18 0 -47 11 -64 24 -19 14
-40 21 -52 17 -12 -3 -26 2 -33 10 -18 22 17 45 62 41 28 -2 38 -9 51 -35 19
-39 29 -33 29 18 0 24 -5 39 -16 43 -24 9 -75 6 -114 -7z"/>
<path d="M3380 2825 c0 -53 9 -57 30 -12 13 28 19 32 53 31 67 -2 91 -54 25
-54 -16 0 -41 -9 -55 -20 -15 -11 -41 -20 -61 -20 -33 0 -35 -1 -16 -14 13
-10 23 -11 31 -4 6 5 45 14 85 20 105 14 119 31 72 87 -24 29 -30 31 -95 31
l-69 0 0 -45z"/>
<path d="M2420 2748 c-91 -3 -212 -14 -270 -22 -160 -24 -282 -48 -276 -53 3
-3 34 0 71 6 146 26 364 42 625 48 237 5 558 -2 548 -12 -2 -2 -53 -9 -113
-15 -211 -22 -315 -45 -315 -70 0 -5 26 -23 58 -39 175 -88 332 -85 610 13
132 47 192 48 231 7 15 -16 33 -48 40 -71 7 -23 15 -40 18 -37 13 14 -32 107
-76 157 l-49 55 -79 -42 c-103 -55 -179 -73 -343 -79 -115 -5 -144 -3 -195 13
-33 10 -60 23 -60 28 1 25 116 48 348 70 38 4 67 8 65 10 -4 4 -475 35 -583
38 -49 1 -164 -1 -255 -5z"/>
<path d="M1838 2663 c7 -3 16 -2 19 1 4 3 -2 6 -13 5 -11 0 -14 -3 -6 -6z"/>
<path d="M840 2160 l0 -190 54 0 53 0 7 77 c3 42 6 127 6 190 l0 113 -60 0
-60 0 0 -190z"/>
<path d="M1054 2283 c3 -38 8 -123 12 -190 l6 -123 43 0 c30 0 45 5 49 16 3 9
6 94 6 190 l0 174 -61 0 -61 0 6 -67z"/>
<path d="M1260 2343 c0 -5 -7 -73 -15 -153 -7 -79 -12 -146 -11 -147 3 -3 67
132 122 255 l24 52 -60 0 c-33 0 -60 -3 -60 -7z"/>
<path d="M1386 2181 c-20 -93 -40 -179 -43 -190 -5 -20 -1 -21 56 -21 33 0 61
2 61 4 0 1 18 80 40 175 22 94 40 178 40 186 0 12 -14 15 -58 15 l-58 0 -38
-169z"/>
<path d="M1677 2333 c-3 -10 -11 -42 -17 -70 -12 -51 -13 -53 -45 -53 -39 0
-40 -1 -50 -57 -7 -43 -7 -43 24 -43 35 0 36 -3 17 -82 l-13 -58 61 0 61 0 39
173 c22 94 41 180 44 190 4 15 -3 17 -56 17 -49 0 -62 -3 -65 -17z"/>
<path d="M1880 2345 c0 -3 -18 -85 -40 -181 -22 -97 -40 -180 -40 -185 0 -5
26 -9 58 -9 l59 0 41 183 c23 100 42 185 42 190 0 8 -120 10 -120 2z"/>
<path d="M2067 2343 c-2 -5 -7 -25 -11 -45 l-7 -38 69 0 c68 0 70 1 76 28 4
15 9 35 12 45 5 15 -3 17 -65 17 -38 0 -72 -3 -74 -7z"/>
<path d="M2276 2333 c-2 -10 -21 -90 -41 -178 -20 -88 -38 -166 -40 -172 -3
-10 12 -13 58 -13 l62 0 39 173 c22 94 41 180 44 190 4 15 -3 17 -56 17 -49 0
-62 -3 -66 -17z"/>
<path d="M2466 2342 c-2 -4 -7 -24 -11 -45 l-7 -37 70 0 70 0 6 31 c11 59 11
59 -58 59 -36 0 -67 -3 -70 -8z"/>
<path d="M2636 2181 c-20 -93 -40 -179 -43 -190 -5 -20 -1 -21 56 -21 33 0 61
2 61 4 0 1 18 80 40 175 22 94 40 178 40 186 0 12 -14 15 -58 15 l-58 0 -38
-169z"/>
<path d="M3021 2313 c-15 -54 -16 -53 37 -53 44 0 52 4 92 45 l44 45 -81 0
-82 0 -10 -37z"/>
<path d="M3223 2316 c-15 -18 -88 -97 -160 -174 -73 -78 -133 -148 -133 -156
0 -13 12 -16 63 -15 l62 1 158 169 c93 100 157 177 157 189 0 18 -7 20 -59 20
-55 0 -62 -2 -88 -34z"/>
<path d="M3432 2163 l-111 -188 57 -3 c68 -4 55 -20 175 210 l88 168 -49 0
-48 0 -112 -187z"/>
<path d="M3865 2338 c-2 -7 -20 -85 -40 -173 -20 -88 -38 -168 -41 -178 -5
-16 0 -18 47 -15 l53 3 37 160 c21 88 40 172 43 188 5 27 5 27 -45 27 -31 0
-51 -5 -54 -12z"/>
<path d="M4026 2320 c-10 -52 -8 -60 18 -60 50 0 31 -66 -21 -72 -40 -4 -50
-61 -27 -150 l18 -68 68 0 c37 0 68 1 68 3 0 1 -11 36 -24 78 l-23 75 28 17
c38 21 69 74 69 118 0 53 -35 82 -109 87 l-58 4 -7 -32z"/>
<path d="M3643 2229 c-24 -43 -43 -88 -43 -99 0 -11 -4 -20 -10 -20 -8 0 -50
-70 -50 -85 0 -3 13 -5 29 -5 22 0 30 -6 35 -25 6 -23 11 -25 66 -25 53 0 60
2 60 20 0 21 -40 313 -43 316 -1 1 -21 -33 -44 -77z"/>
<path d="M2036 2202 c-2 -4 -7 -24 -11 -45 l-7 -37 55 0 c58 0 67 8 67 68 0
20 -5 22 -49 22 -28 0 -52 -3 -55 -8z"/>
<path d="M2437 2203 c-3 -5 -9 -25 -15 -45 l-10 -38 59 0 c43 0 59 4 59 14 0
7 3 28 6 45 l7 31 -51 0 c-28 0 -53 -3 -55 -7z"/>
<path d="M2795 2058 c-2 -7 -8 -30 -14 -50 l-9 -38 63 0 c35 0 66 4 69 8 3 5
8 28 12 50 l7 42 -62 0 c-40 0 -63 -4 -66 -12z"/>
<path d="M1996 2033 c-4 -16 -9 -36 -12 -45 -5 -16 3 -18 69 -18 l74 0 10 45
10 45 -72 0 c-71 0 -73 -1 -79 -27z"/>
<path d="M2391 2023 c-6 -21 -11 -41 -11 -45 0 -10 137 -10 144 0 2 4 7 24 11
45 l7 37 -70 0 -71 0 -10 -37z"/>
<path d="M3157 2015 l-38 -45 90 0 c71 0 91 3 91 14 0 7 3 28 6 45 l7 31 -59
0 c-57 -1 -60 -2 -97 -45z"/>
<path d="M1767 1802 c-22 -25 -21 -75 1 -95 25 -23 75 -21 97 3 23 25 12 37
-19 21 -37 -20 -61 -11 -61 24 0 35 24 44 61 24 31 -16 42 -4 19 21 -23 25
-76 26 -98 2z"/>
<path d="M1947 1758 c-23 -59 -21 -86 6 -59 14 14 42 14 67 -1 10 -7 22 -10
25 -7 9 10 -43 124 -58 127 -10 2 -23 -18 -40 -60z m53 -10 c0 -5 -7 -8 -15
-8 -17 0 -18 2 -9 25 5 13 8 14 15 3 5 -7 9 -16 9 -20z"/>
<path d="M2100 1755 c0 -51 3 -65 15 -65 8 0 15 9 15 20 0 11 4 20 10 20 5 0
14 -9 20 -20 6 -11 17 -20 25 -20 18 0 19 12 3 28 -9 9 -9 15 0 24 7 7 12 21
12 33 0 31 -19 45 -62 45 l-38 0 0 -65z m54 39 c23 -9 20 -34 -4 -34 -13 0
-20 7 -20 20 0 22 1 23 24 14z"/>
<path d="M2330 1755 c0 -37 4 -65 10 -65 6 0 10 17 10 37 l0 36 26 -24 25 -24
19 25 20 25 0 -37 c0 -27 4 -38 15 -38 12 0 15 14 15 65 0 74 -16 86 -47 35
-9 -16 -21 -30 -24 -30 -4 0 -17 14 -29 30 -12 17 -26 30 -31 30 -5 0 -9 -29
-9 -65z"/>
<path d="M2542 1762 c-26 -68 -26 -72 -7 -72 8 0 15 5 15 10 0 6 14 10 30 10
17 0 30 -4 30 -10 0 -5 7 -10 15 -10 19 0 19 4 -7 72 -14 35 -29 58 -38 58 -9
0 -24 -23 -38 -58z m52 -7 c3 -9 0 -15 -9 -15 -8 0 -15 7 -15 15 0 8 4 15 9
15 5 0 11 -7 15 -15z"/>
<path d="M2690 1755 c0 -51 3 -65 15 -65 8 0 15 9 15 20 0 11 4 20 10 20 5 0
14 -9 20 -20 6 -11 17 -20 25 -20 18 0 18 5 5 30 -7 13 -7 21 0 25 14 9 13 48
-2 63 -7 7 -29 12 -50 12 l-38 0 0 -65z m54 39 c23 -9 20 -34 -4 -34 -13 0
-20 7 -20 20 0 22 1 23 24 14z"/>
<path d="M2850 1755 c0 -51 3 -65 15 -65 9 0 15 9 15 25 0 14 4 25 9 25 5 0
16 -11 25 -25 9 -14 23 -25 31 -25 14 0 14 3 0 30 -14 26 -14 34 -1 65 14 33
14 35 -3 35 -12 0 -21 -10 -25 -25 -4 -14 -13 -25 -21 -25 -9 0 -15 10 -15 25
0 16 -6 25 -15 25 -12 0 -15 -14 -15 -65z"/>
<path d="M3010 1755 l0 -65 45 0 c25 0 45 5 45 10 0 6 -13 10 -30 10 -20 0
-30 5 -30 15 0 9 9 15 25 15 16 0 25 6 25 15 0 9 -9 15 -25 15 -16 0 -25 6
-25 15 0 10 10 15 30 15 17 0 30 5 30 10 0 6 -20 10 -45 10 l-45 0 0 -65z"/>
<path d="M3140 1805 c0 -8 9 -15 20 -15 17 0 20 -7 20 -50 0 -38 4 -50 15 -50
11 0 15 12 15 50 0 43 3 50 20 50 11 0 20 7 20 15 0 12 -13 15 -55 15 -42 0
-55 -3 -55 -15z"/>
<path d="M1047 1773 c-4 -3 -7 -10 -7 -15 0 -4 133 -8 296 -8 232 0 295 3 292
13 -4 9 -72 13 -290 15 -156 1 -287 -1 -291 -5z"/>
<path d="M3377 1773 c-4 -3 -7 -10 -7 -15 0 -4 133 -8 296 -8 232 0 295 3 292
13 -4 9 -72 13 -290 15 -156 1 -287 -1 -291 -5z"/>
</g>
</svg>
